<svg width="153" height="415" viewBox="0 0 153 415" fill="none" xmlns="http://www.w3.org/2000/svg">
<rect x="0.5" y="0.5" width="152" height="414" rx="4.5" stroke="#9747FF" stroke-dasharray="10 5"/>
<rect x="20" y="20" width="112" height="48" rx="24" fill="#44ACCA"/>
<path d="M53.3597 50V38.3636H57.621C58.4468 38.3636 59.1305 38.5 59.6722 38.7727C60.2138 39.0417 60.6191 39.4072 60.8881 39.8693C61.157 40.3277 61.2915 40.8447 61.2915 41.4205C61.2915 41.9053 61.2025 42.3144 61.0244 42.6477C60.8464 42.9773 60.6078 43.2424 60.3085 43.4432C60.0131 43.6402 59.6873 43.7841 59.3312 43.875V43.9886C59.7176 44.0076 60.0945 44.1326 60.4619 44.3636C60.8331 44.5909 61.14 44.9148 61.3824 45.3352C61.6248 45.7557 61.746 46.267 61.746 46.8693C61.746 47.464 61.6059 47.9981 61.3256 48.4716C61.0491 48.9413 60.621 49.3144 60.0415 49.5909C59.4619 49.8636 58.7214 50 57.8199 50H53.3597ZM55.1153 48.4943H57.6494C58.4903 48.4943 59.0926 48.3314 59.4562 48.0057C59.8199 47.6799 60.0017 47.2727 60.0017 46.7841C60.0017 46.4167 59.9089 46.0795 59.7233 45.7727C59.5377 45.4659 59.2725 45.2216 58.9278 45.0398C58.5869 44.858 58.1816 44.767 57.7119 44.767H55.1153V48.4943ZM55.1153 43.3977H57.4676C57.8616 43.3977 58.2157 43.322 58.5301 43.1705C58.8483 43.0189 59.1002 42.8068 59.2858 42.5341C59.4752 42.2576 59.5699 41.9318 59.5699 41.5568C59.5699 41.0758 59.4013 40.6723 59.0642 40.3466C58.7271 40.0208 58.21 39.858 57.5131 39.858H55.1153V43.3977ZM67.4682 50.1761C66.65 50.1761 65.936 49.9886 65.3261 49.6136C64.7163 49.2386 64.2428 48.714 63.9057 48.0398C63.5686 47.3655 63.4 46.5777 63.4 45.6761C63.4 44.7708 63.5686 43.9792 63.9057 43.3011C64.2428 42.6231 64.7163 42.0966 65.3261 41.7216C65.936 41.3466 66.65 41.1591 67.4682 41.1591C68.2864 41.1591 69.0004 41.3466 69.6102 41.7216C70.2201 42.0966 70.6936 42.6231 71.0307 43.3011C71.3678 43.9792 71.5364 44.7708 71.5364 45.6761C71.5364 46.5777 71.3678 47.3655 71.0307 48.0398C70.6936 48.714 70.2201 49.2386 69.6102 49.6136C69.0004 49.9886 68.2864 50.1761 67.4682 50.1761ZM67.4739 48.75C68.0042 48.75 68.4436 48.6098 68.792 48.3295C69.1405 48.0492 69.3981 47.6761 69.5648 47.2102C69.7352 46.7443 69.8205 46.2311 69.8205 45.6705C69.8205 45.1136 69.7352 44.6023 69.5648 44.1364C69.3981 43.6667 69.1405 43.2898 68.792 43.0057C68.4436 42.7216 68.0042 42.5795 67.4739 42.5795C66.9398 42.5795 66.4966 42.7216 66.1443 43.0057C65.7958 43.2898 65.5364 43.6667 65.3659 44.1364C65.1992 44.6023 65.1159 45.1136 65.1159 45.6705C65.1159 46.2311 65.1992 46.7443 65.3659 47.2102C65.5364 47.6761 65.7958 48.0492 66.1443 48.3295C66.4966 48.6098 66.9398 48.75 67.4739 48.75ZM75.1974 47.6193L79.044 41.2727H80.8736V50H79.2088V43.6477L75.3793 50H73.5327V41.2727H75.1974V47.6193ZM78.3168 38.3182H79.7145C79.7145 38.9583 79.4872 39.4792 79.0327 39.8807C78.5819 40.2784 77.9721 40.4773 77.2031 40.4773C76.438 40.4773 75.83 40.2784 75.3793 39.8807C74.9285 39.4792 74.7031 38.9583 74.7031 38.3182H76.0952C76.0952 38.6023 76.1785 38.8542 76.3452 39.0739C76.5118 39.2898 76.7978 39.3977 77.2031 39.3977C77.6009 39.3977 77.8849 39.2898 78.0554 39.0739C78.2296 38.858 78.3168 38.6061 78.3168 38.3182ZM82.1753 42.7386V41.2727H89.5389V42.7386H86.6923V50H85.0332V42.7386H82.1753ZM93.1006 47.6193L96.9472 41.2727H98.7767V50H97.1119V43.6477L93.2824 50H91.4358V41.2727H93.1006V47.6193Z" fill="white"/>
<rect x="21" y="133" width="112" height="48" rx="24" fill="#3B8297"/>
<path d="M54.3597 163V151.364H58.621C59.4468 151.364 60.1305 151.5 60.6722 151.773C61.2138 152.042 61.6191 152.407 61.8881 152.869C62.157 153.328 62.2915 153.845 62.2915 154.42C62.2915 154.905 62.2025 155.314 62.0244 155.648C61.8464 155.977 61.6078 156.242 61.3085 156.443C61.0131 156.64 60.6873 156.784 60.3312 156.875V156.989C60.7176 157.008 61.0945 157.133 61.4619 157.364C61.8331 157.591 62.14 157.915 62.3824 158.335C62.6248 158.756 62.746 159.267 62.746 159.869C62.746 160.464 62.6059 160.998 62.3256 161.472C62.0491 161.941 61.621 162.314 61.0415 162.591C60.4619 162.864 59.7214 163 58.8199 163H54.3597ZM56.1153 161.494H58.6494C59.4903 161.494 60.0926 161.331 60.4562 161.006C60.8199 160.68 61.0017 160.273 61.0017 159.784C61.0017 159.417 60.9089 159.08 60.7233 158.773C60.5377 158.466 60.2725 158.222 59.9278 158.04C59.5869 157.858 59.1816 157.767 58.7119 157.767H56.1153V161.494ZM56.1153 156.398H58.4676C58.8616 156.398 59.2157 156.322 59.5301 156.17C59.8483 156.019 60.1002 155.807 60.2858 155.534C60.4752 155.258 60.5699 154.932 60.5699 154.557C60.5699 154.076 60.4013 153.672 60.0642 153.347C59.7271 153.021 59.21 152.858 58.5131 152.858H56.1153V156.398ZM68.4682 163.176C67.65 163.176 66.936 162.989 66.3261 162.614C65.7163 162.239 65.2428 161.714 64.9057 161.04C64.5686 160.366 64.4 159.578 64.4 158.676C64.4 157.771 64.5686 156.979 64.9057 156.301C65.2428 155.623 65.7163 155.097 66.3261 154.722C66.936 154.347 67.65 154.159 68.4682 154.159C69.2864 154.159 70.0004 154.347 70.6102 154.722C71.2201 155.097 71.6936 155.623 72.0307 156.301C72.3678 156.979 72.5364 157.771 72.5364 158.676C72.5364 159.578 72.3678 160.366 72.0307 161.04C71.6936 161.714 71.2201 162.239 70.6102 162.614C70.0004 162.989 69.2864 163.176 68.4682 163.176ZM68.4739 161.75C69.0042 161.75 69.4436 161.61 69.792 161.33C70.1405 161.049 70.3981 160.676 70.5648 160.21C70.7352 159.744 70.8205 159.231 70.8205 158.67C70.8205 158.114 70.7352 157.602 70.5648 157.136C70.3981 156.667 70.1405 156.29 69.792 156.006C69.4436 155.722 69.0042 155.58 68.4739 155.58C67.9398 155.58 67.4966 155.722 67.1443 156.006C66.7958 156.29 66.5364 156.667 66.3659 157.136C66.1992 157.602 66.1159 158.114 66.1159 158.67C66.1159 159.231 66.1992 159.744 66.3659 160.21C66.5364 160.676 66.7958 161.049 67.1443 161.33C67.4966 161.61 67.9398 161.75 68.4739 161.75ZM76.1974 160.619L80.044 154.273H81.8736V163H80.2088V156.648L76.3793 163H74.5327V154.273H76.1974V160.619ZM79.3168 151.318H80.7145C80.7145 151.958 80.4872 152.479 80.0327 152.881C79.5819 153.278 78.9721 153.477 78.2031 153.477C77.438 153.477 76.83 153.278 76.3793 152.881C75.9285 152.479 75.7031 151.958 75.7031 151.318H77.0952C77.0952 151.602 77.1785 151.854 77.3452 152.074C77.5118 152.29 77.7978 152.398 78.2031 152.398C78.6009 152.398 78.8849 152.29 79.0554 152.074C79.2296 151.858 79.3168 151.606 79.3168 151.318ZM83.1753 155.739V154.273H90.5389V155.739H87.6923V163H86.0332V155.739H83.1753ZM94.1006 160.619L97.9472 154.273H99.7767V163H98.1119V156.648L94.2824 163H92.4358V154.273H94.1006V160.619Z" fill="white"/>
<rect x="21" y="249" width="112" height="48" rx="24" fill="#D1D5DB"/>
<path d="M54.3597 279V267.364H58.621C59.4468 267.364 60.1305 267.5 60.6722 267.773C61.2138 268.042 61.6191 268.407 61.8881 268.869C62.157 269.328 62.2915 269.845 62.2915 270.42C62.2915 270.905 62.2025 271.314 62.0244 271.648C61.8464 271.977 61.6078 272.242 61.3085 272.443C61.0131 272.64 60.6873 272.784 60.3312 272.875V272.989C60.7176 273.008 61.0945 273.133 61.4619 273.364C61.8331 273.591 62.14 273.915 62.3824 274.335C62.6248 274.756 62.746 275.267 62.746 275.869C62.746 276.464 62.6059 276.998 62.3256 277.472C62.0491 277.941 61.621 278.314 61.0415 278.591C60.4619 278.864 59.7214 279 58.8199 279H54.3597ZM56.1153 277.494H58.6494C59.4903 277.494 60.0926 277.331 60.4562 277.006C60.8199 276.68 61.0017 276.273 61.0017 275.784C61.0017 275.417 60.9089 275.08 60.7233 274.773C60.5377 274.466 60.2725 274.222 59.9278 274.04C59.5869 273.858 59.1816 273.767 58.7119 273.767H56.1153V277.494ZM56.1153 272.398H58.4676C58.8616 272.398 59.2157 272.322 59.5301 272.17C59.8483 272.019 60.1002 271.807 60.2858 271.534C60.4752 271.258 60.5699 270.932 60.5699 270.557C60.5699 270.076 60.4013 269.672 60.0642 269.347C59.7271 269.021 59.21 268.858 58.5131 268.858H56.1153V272.398ZM68.4682 279.176C67.65 279.176 66.936 278.989 66.3261 278.614C65.7163 278.239 65.2428 277.714 64.9057 277.04C64.5686 276.366 64.4 275.578 64.4 274.676C64.4 273.771 64.5686 272.979 64.9057 272.301C65.2428 271.623 65.7163 271.097 66.3261 270.722C66.936 270.347 67.65 270.159 68.4682 270.159C69.2864 270.159 70.0004 270.347 70.6102 270.722C71.2201 271.097 71.6936 271.623 72.0307 272.301C72.3678 272.979 72.5364 273.771 72.5364 274.676C72.5364 275.578 72.3678 276.366 72.0307 277.04C71.6936 277.714 71.2201 278.239 70.6102 278.614C70.0004 278.989 69.2864 279.176 68.4682 279.176ZM68.4739 277.75C69.0042 277.75 69.4436 277.61 69.792 277.33C70.1405 277.049 70.3981 276.676 70.5648 276.21C70.7352 275.744 70.8205 275.231 70.8205 274.67C70.8205 274.114 70.7352 273.602 70.5648 273.136C70.3981 272.667 70.1405 272.29 69.792 272.006C69.4436 271.722 69.0042 271.58 68.4739 271.58C67.9398 271.58 67.4966 271.722 67.1443 272.006C66.7958 272.29 66.5364 272.667 66.3659 273.136C66.1992 273.602 66.1159 274.114 66.1159 274.67C66.1159 275.231 66.1992 275.744 66.3659 276.21C66.5364 276.676 66.7958 277.049 67.1443 277.33C67.4966 277.61 67.9398 277.75 68.4739 277.75ZM76.1974 276.619L80.044 270.273H81.8736V279H80.2088V272.648L76.3793 279H74.5327V270.273H76.1974V276.619ZM79.3168 267.318H80.7145C80.7145 267.958 80.4872 268.479 80.0327 268.881C79.5819 269.278 78.9721 269.477 78.2031 269.477C77.438 269.477 76.83 269.278 76.3793 268.881C75.9285 268.479 75.7031 267.958 75.7031 267.318H77.0952C77.0952 267.602 77.1785 267.854 77.3452 268.074C77.5118 268.29 77.7978 268.398 78.2031 268.398C78.6009 268.398 78.8849 268.29 79.0554 268.074C79.2296 267.858 79.3168 267.606 79.3168 267.318ZM83.1753 271.739V270.273H90.5389V271.739H87.6923V279H86.0332V271.739H83.1753ZM94.1006 276.619L97.9472 270.273H99.7767V279H98.1119V272.648L94.2824 279H92.4358V270.273H94.1006V276.619Z" fill="#6B7280"/>
<rect x="21" y="338" width="112" height="48" rx="24" fill="#D1D5DB"/>
<path d="M87 362C87 367.523 82.5228 372 77 372C71.4772 372 67 367.523 67 362C67 356.477 71.4772 352 77 352C82.5228 352 87 356.477 87 362ZM70.5 362C70.5 365.59 73.4101 368.5 77 368.5C80.5898 368.5 83.5 365.59 83.5 362C83.5 358.41 80.5898 355.5 77 355.5C73.4101 355.5 70.5 358.41 70.5 362Z" fill="#FFF0EA"/>
<path d="M77 352C78.3132 352 79.6136 352.259 80.8268 352.761C82.0401 353.264 83.1425 354 84.0711 354.929C84.9997 355.858 85.7362 356.96 86.2388 358.173C86.7413 359.386 87 360.687 87 362L83.5 362C83.5 361.146 83.3319 360.301 83.0052 359.513C82.6786 358.724 82.1998 358.007 81.5962 357.404C80.9926 356.8 80.2761 356.321 79.4874 355.995C78.6988 355.668 77.8536 355.5 77 355.5L77 352Z" fill="#6B7280"/>
</svg>
