<svg width="366" height="491" viewBox="0 0 366 491" fill="none" xmlns="http://www.w3.org/2000/svg">
<rect x="0.5" y="0.5" width="365" height="490" rx="4.5" stroke="#9747FF" stroke-dasharray="10 5"/>
<rect x="20" y="20" width="326" height="56" rx="24" fill="#F3F4F6"/>
<mask id="mask0_48_256" style="mask-type:alpha" maskUnits="userSpaceOnUse" x="40" y="36" width="24" height="24">
<rect x="40" y="36" width="24" height="24" fill="#D9D9D9"/>
</mask>
<g mask="url(#mask0_48_256)">
<path d="M59.6 57L53.3 50.7C52.8 51.1 52.225 51.4167 51.575 51.65C50.925 51.8833 50.2333 52 49.5 52C47.6833 52 46.1458 51.3708 44.8875 50.1125C43.6292 48.8542 43 47.3167 43 45.5C43 43.6833 43.6292 42.1458 44.8875 40.8875C46.1458 39.6292 47.6833 39 49.5 39C51.3167 39 52.8542 39.6292 54.1125 40.8875C55.3708 42.1458 56 43.6833 56 45.5C56 46.2333 55.8833 46.925 55.65 47.575C55.4167 48.225 55.1 48.8 54.7 49.3L61 55.6L59.6 57ZM49.5 50C50.75 50 51.8125 49.5625 52.6875 48.6875C53.5625 47.8125 54 46.75 54 45.5C54 44.25 53.5625 43.1875 52.6875 42.3125C51.8125 41.4375 50.75 41 49.5 41C48.25 41 47.1875 41.4375 46.3125 42.3125C45.4375 43.1875 45 44.25 45 45.5C45 46.75 45.4375 47.8125 46.3125 48.6875C47.1875 49.5625 48.25 50 49.5 50Z" fill="#6B7280"/>
</g>
<path d="M104.375 41.8636V53.5H102.625V43.3636H97.1477V53.5H95.3977V41.8636H104.375ZM110.599 53.6761C109.781 53.6761 109.067 53.4886 108.457 53.1136C107.848 52.7386 107.374 52.214 107.037 51.5398C106.7 50.8655 106.531 50.0777 106.531 49.1761C106.531 48.2708 106.7 47.4792 107.037 46.8011C107.374 46.1231 107.848 45.5966 108.457 45.2216C109.067 44.8466 109.781 44.6591 110.599 44.6591C111.418 44.6591 112.132 44.8466 112.741 45.2216C113.351 45.5966 113.825 46.1231 114.162 46.8011C114.499 47.4792 114.668 48.2708 114.668 49.1761C114.668 50.0777 114.499 50.8655 114.162 51.5398C113.825 52.214 113.351 52.7386 112.741 53.1136C112.132 53.4886 111.418 53.6761 110.599 53.6761ZM110.605 52.25C111.135 52.25 111.575 52.1098 111.923 51.8295C112.272 51.5492 112.529 51.1761 112.696 50.7102C112.866 50.2443 112.952 49.7311 112.952 49.1705C112.952 48.6136 112.866 48.1023 112.696 47.6364C112.529 47.1667 112.272 46.7898 111.923 46.5057C111.575 46.2216 111.135 46.0795 110.605 46.0795C110.071 46.0795 109.628 46.2216 109.276 46.5057C108.927 46.7898 108.668 47.1667 108.497 47.6364C108.33 48.1023 108.247 48.6136 108.247 49.1705C108.247 49.7311 108.33 50.2443 108.497 50.7102C108.668 51.1761 108.927 51.5492 109.276 51.8295C109.628 52.1098 110.071 52.25 110.605 52.25ZM118.229 51.1193L122.075 44.7727H123.905V53.5H122.24V47.1477L118.411 53.5H116.564V44.7727H118.229V51.1193ZM129.865 53.6761C129.02 53.6761 128.293 53.4848 127.683 53.1023C127.077 52.7159 126.611 52.1837 126.286 51.5057C125.96 50.8277 125.797 50.0511 125.797 49.1761C125.797 48.2898 125.964 47.5076 126.297 46.8295C126.63 46.1477 127.1 45.6155 127.706 45.233C128.312 44.8504 129.026 44.6591 129.848 44.6591C130.511 44.6591 131.102 44.7822 131.621 45.0284C132.14 45.2708 132.558 45.6117 132.876 46.0511C133.198 46.4905 133.39 47.0038 133.45 47.5909H131.797C131.706 47.1818 131.498 46.8295 131.172 46.5341C130.85 46.2386 130.418 46.0909 129.876 46.0909C129.403 46.0909 128.988 46.2159 128.632 46.4659C128.28 46.7121 128.005 47.0644 127.808 47.5227C127.611 47.9773 127.513 48.5152 127.513 49.1364C127.513 49.7727 127.609 50.322 127.803 50.7841C127.996 51.2462 128.268 51.6042 128.621 51.858C128.977 52.1117 129.395 52.2386 129.876 52.2386C130.198 52.2386 130.49 52.1799 130.751 52.0625C131.017 51.9413 131.238 51.7689 131.416 51.5455C131.598 51.322 131.725 51.053 131.797 50.7386H133.45C133.39 51.303 133.206 51.8068 132.899 52.25C132.592 52.6932 132.181 53.0417 131.666 53.2955C131.155 53.5492 130.554 53.6761 129.865 53.6761ZM135.267 53.5V44.7727H136.966V48.4318H137.784L140.665 44.7727H142.767L139.386 49.017L142.807 53.5H140.699L138.068 50.0114H136.966V53.5H135.267ZM145.246 53.608C144.935 53.608 144.668 53.4981 144.445 53.2784C144.221 53.0549 144.109 52.786 144.109 52.4716C144.109 52.161 144.221 51.8958 144.445 51.6761C144.668 51.4527 144.935 51.3409 145.246 51.3409C145.556 51.3409 145.823 51.4527 146.047 51.6761C146.27 51.8958 146.382 52.161 146.382 52.4716C146.382 52.6799 146.329 52.8712 146.223 53.0455C146.121 53.2159 145.984 53.3523 145.814 53.4545C145.643 53.5568 145.454 53.608 145.246 53.608ZM149.777 53.608C149.466 53.608 149.199 53.4981 148.976 53.2784C148.752 53.0549 148.641 52.786 148.641 52.4716C148.641 52.161 148.752 51.8958 148.976 51.6761C149.199 51.4527 149.466 51.3409 149.777 51.3409C150.088 51.3409 150.355 51.4527 150.578 51.6761C150.802 51.8958 150.913 52.161 150.913 52.4716C150.913 52.6799 150.86 52.8712 150.754 53.0455C150.652 53.2159 150.516 53.3523 150.345 53.4545C150.175 53.5568 149.985 53.608 149.777 53.608ZM154.308 53.608C153.998 53.608 153.731 53.4981 153.507 53.2784C153.284 53.0549 153.172 52.786 153.172 52.4716C153.172 52.161 153.284 51.8958 153.507 51.6761C153.731 51.4527 153.998 51.3409 154.308 51.3409C154.619 51.3409 154.886 51.4527 155.109 51.6761C155.333 51.8958 155.445 52.161 155.445 52.4716C155.445 52.6799 155.392 52.8712 155.286 53.0455C155.183 53.2159 155.047 53.3523 154.876 53.4545C154.706 53.5568 154.517 53.608 154.308 53.608Z" fill="#9CA3AF"/>
<rect x="20" y="415" width="326" height="56" rx="24" fill="#F3F4F6"/>
<mask id="mask1_48_256" style="mask-type:alpha" maskUnits="userSpaceOnUse" x="40" y="431" width="24" height="24">
<rect x="40" y="431" width="24" height="24" fill="#D9D9D9"/>
</mask>
<g mask="url(#mask1_48_256)">
<path d="M59.6 452L53.3 445.7C52.8 446.1 52.225 446.417 51.575 446.65C50.925 446.883 50.2333 447 49.5 447C47.6833 447 46.1458 446.371 44.8875 445.113C43.6292 443.854 43 442.317 43 440.5C43 438.683 43.6292 437.146 44.8875 435.888C46.1458 434.629 47.6833 434 49.5 434C51.3167 434 52.8542 434.629 54.1125 435.888C55.3708 437.146 56 438.683 56 440.5C56 441.233 55.8833 441.925 55.65 442.575C55.4167 443.225 55.1 443.8 54.7 444.3L61 450.6L59.6 452ZM49.5 445C50.75 445 51.8125 444.562 52.6875 443.688C53.5625 442.812 54 441.75 54 440.5C54 439.25 53.5625 438.188 52.6875 437.312C51.8125 436.438 50.75 436 49.5 436C48.25 436 47.1875 436.438 46.3125 437.312C45.4375 438.188 45 439.25 45 440.5C45 441.75 45.4375 442.812 46.3125 443.688C47.1875 444.562 48.25 445 49.5 445Z" fill="#D1D5DB"/>
</g>
<path d="M104.375 436.864V448.5H102.625V438.364H97.1477V448.5H95.3977V436.864H104.375ZM110.599 448.676C109.781 448.676 109.067 448.489 108.457 448.114C107.848 447.739 107.374 447.214 107.037 446.54C106.7 445.866 106.531 445.078 106.531 444.176C106.531 443.271 106.7 442.479 107.037 441.801C107.374 441.123 107.848 440.597 108.457 440.222C109.067 439.847 109.781 439.659 110.599 439.659C111.418 439.659 112.132 439.847 112.741 440.222C113.351 440.597 113.825 441.123 114.162 441.801C114.499 442.479 114.668 443.271 114.668 444.176C114.668 445.078 114.499 445.866 114.162 446.54C113.825 447.214 113.351 447.739 112.741 448.114C112.132 448.489 111.418 448.676 110.599 448.676ZM110.605 447.25C111.135 447.25 111.575 447.11 111.923 446.83C112.272 446.549 112.529 446.176 112.696 445.71C112.866 445.244 112.952 444.731 112.952 444.17C112.952 443.614 112.866 443.102 112.696 442.636C112.529 442.167 112.272 441.79 111.923 441.506C111.575 441.222 111.135 441.08 110.605 441.08C110.071 441.08 109.628 441.222 109.276 441.506C108.927 441.79 108.668 442.167 108.497 442.636C108.33 443.102 108.247 443.614 108.247 444.17C108.247 444.731 108.33 445.244 108.497 445.71C108.668 446.176 108.927 446.549 109.276 446.83C109.628 447.11 110.071 447.25 110.605 447.25ZM118.229 446.119L122.075 439.773H123.905V448.5H122.24V442.148L118.411 448.5H116.564V439.773H118.229V446.119ZM129.865 448.676C129.02 448.676 128.293 448.485 127.683 448.102C127.077 447.716 126.611 447.184 126.286 446.506C125.96 445.828 125.797 445.051 125.797 444.176C125.797 443.29 125.964 442.508 126.297 441.83C126.63 441.148 127.1 440.616 127.706 440.233C128.312 439.85 129.026 439.659 129.848 439.659C130.511 439.659 131.102 439.782 131.621 440.028C132.14 440.271 132.558 440.612 132.876 441.051C133.198 441.491 133.39 442.004 133.45 442.591H131.797C131.706 442.182 131.498 441.83 131.172 441.534C130.85 441.239 130.418 441.091 129.876 441.091C129.403 441.091 128.988 441.216 128.632 441.466C128.28 441.712 128.005 442.064 127.808 442.523C127.611 442.977 127.513 443.515 127.513 444.136C127.513 444.773 127.609 445.322 127.803 445.784C127.996 446.246 128.268 446.604 128.621 446.858C128.977 447.112 129.395 447.239 129.876 447.239C130.198 447.239 130.49 447.18 130.751 447.062C131.017 446.941 131.238 446.769 131.416 446.545C131.598 446.322 131.725 446.053 131.797 445.739H133.45C133.39 446.303 133.206 446.807 132.899 447.25C132.592 447.693 132.181 448.042 131.666 448.295C131.155 448.549 130.554 448.676 129.865 448.676ZM135.267 448.5V439.773H136.966V443.432H137.784L140.665 439.773H142.767L139.386 444.017L142.807 448.5H140.699L138.068 445.011H136.966V448.5H135.267ZM145.246 448.608C144.935 448.608 144.668 448.498 144.445 448.278C144.221 448.055 144.109 447.786 144.109 447.472C144.109 447.161 144.221 446.896 144.445 446.676C144.668 446.453 144.935 446.341 145.246 446.341C145.556 446.341 145.823 446.453 146.047 446.676C146.27 446.896 146.382 447.161 146.382 447.472C146.382 447.68 146.329 447.871 146.223 448.045C146.121 448.216 145.984 448.352 145.814 448.455C145.643 448.557 145.454 448.608 145.246 448.608ZM149.777 448.608C149.466 448.608 149.199 448.498 148.976 448.278C148.752 448.055 148.641 447.786 148.641 447.472C148.641 447.161 148.752 446.896 148.976 446.676C149.199 446.453 149.466 446.341 149.777 446.341C150.088 446.341 150.355 446.453 150.578 446.676C150.802 446.896 150.913 447.161 150.913 447.472C150.913 447.68 150.86 447.871 150.754 448.045C150.652 448.216 150.516 448.352 150.345 448.455C150.175 448.557 149.985 448.608 149.777 448.608ZM154.308 448.608C153.998 448.608 153.731 448.498 153.507 448.278C153.284 448.055 153.172 447.786 153.172 447.472C153.172 447.161 153.284 446.896 153.507 446.676C153.731 446.453 153.998 446.341 154.308 446.341C154.619 446.341 154.886 446.453 155.109 446.676C155.333 446.896 155.445 447.161 155.445 447.472C155.445 447.68 155.392 447.871 155.286 448.045C155.183 448.216 155.047 448.352 154.876 448.455C154.706 448.557 154.517 448.608 154.308 448.608Z" fill="#D1D5DB"/>
<rect x="21" y="105" width="324" height="54" rx="23" fill="white" stroke="#44ACCA" stroke-width="2"/>
<mask id="mask2_48_256" style="mask-type:alpha" maskUnits="userSpaceOnUse" x="40" y="120" width="24" height="24">
<rect x="40" y="120" width="24" height="24" fill="#D9D9D9"/>
</mask>
<g mask="url(#mask2_48_256)">
<path d="M59.6 141L53.3 134.7C52.8 135.1 52.225 135.417 51.575 135.65C50.925 135.883 50.2333 136 49.5 136C47.6833 136 46.1458 135.371 44.8875 134.113C43.6292 132.854 43 131.317 43 129.5C43 127.683 43.6292 126.146 44.8875 124.888C46.1458 123.629 47.6833 123 49.5 123C51.3167 123 52.8542 123.629 54.1125 124.888C55.3708 126.146 56 127.683 56 129.5C56 130.233 55.8833 130.925 55.65 131.575C55.4167 132.225 55.1 132.8 54.7 133.3L61 139.6L59.6 141ZM49.5 134C50.75 134 51.8125 133.562 52.6875 132.688C53.5625 131.812 54 130.75 54 129.5C54 128.25 53.5625 127.188 52.6875 126.312C51.8125 125.438 50.75 125 49.5 125C48.25 125 47.1875 125.438 46.3125 126.312C45.4375 127.188 45 128.25 45 129.5C45 130.75 45.4375 131.812 46.3125 132.688C47.1875 133.562 48.25 134 49.5 134Z" fill="#44ACCA"/>
</g>
<path d="M308 142L306 140L314 132L306 124L308 122L316 130L324 122L326 124L318 132L326 140L324 142L316 134L308 142Z" fill="#44ACCA"/>
<rect x="21" y="214" width="324" height="54" rx="23" fill="white" stroke="#6B7280" stroke-width="2"/>
<mask id="mask3_48_256" style="mask-type:alpha" maskUnits="userSpaceOnUse" x="40" y="229" width="24" height="24">
<rect x="40" y="229" width="24" height="24" fill="#D9D9D9"/>
</mask>
<g mask="url(#mask3_48_256)">
<path d="M59.6 250L53.3 243.7C52.8 244.1 52.225 244.417 51.575 244.65C50.925 244.883 50.2333 245 49.5 245C47.6833 245 46.1458 244.371 44.8875 243.113C43.6292 241.854 43 240.317 43 238.5C43 236.683 43.6292 235.146 44.8875 233.888C46.1458 232.629 47.6833 232 49.5 232C51.3167 232 52.8542 232.629 54.1125 233.888C55.3708 235.146 56 236.683 56 238.5C56 239.233 55.8833 239.925 55.65 240.575C55.4167 241.225 55.1 241.8 54.7 242.3L61 248.6L59.6 250ZM49.5 243C50.75 243 51.8125 242.562 52.6875 241.688C53.5625 240.812 54 239.75 54 238.5C54 237.25 53.5625 236.188 52.6875 235.312C51.8125 234.438 50.75 234 49.5 234C48.25 234 47.1875 234.438 46.3125 235.312C45.4375 236.188 45 237.25 45 238.5C45 239.75 45.4375 240.812 46.3125 241.688C47.1875 242.562 48.25 243 49.5 243Z" fill="#6B7280"/>
</g>
<path d="M95.2784 234.864H97.017V243.409H97.125L103.045 234.864H104.67V246.5H102.915V237.966H102.807L96.8977 246.5H95.2784V234.864ZM107.095 246.5V237.773H110.714C111.699 237.773 112.48 237.983 113.055 238.403C113.631 238.82 113.919 239.386 113.919 240.102C113.919 240.614 113.756 241.019 113.43 241.318C113.105 241.617 112.673 241.818 112.135 241.92C112.525 241.966 112.883 242.083 113.209 242.273C113.535 242.458 113.796 242.708 113.993 243.023C114.194 243.337 114.294 243.712 114.294 244.148C114.294 244.61 114.175 245.019 113.936 245.375C113.697 245.727 113.351 246.004 112.896 246.205C112.446 246.402 111.902 246.5 111.266 246.5H107.095ZM108.692 245.08H111.266C111.686 245.08 112.016 244.979 112.254 244.778C112.493 244.578 112.612 244.305 112.612 243.96C112.612 243.555 112.493 243.237 112.254 243.006C112.016 242.771 111.686 242.653 111.266 242.653H108.692V245.08ZM108.692 241.409H110.732C111.05 241.409 111.322 241.364 111.55 241.273C111.781 241.182 111.957 241.053 112.078 240.886C112.203 240.716 112.266 240.515 112.266 240.284C112.266 239.947 112.127 239.684 111.851 239.494C111.574 239.305 111.196 239.21 110.714 239.21H108.692V241.409ZM118.697 246.693C118.144 246.693 117.644 246.591 117.197 246.386C116.75 246.178 116.396 245.877 116.135 245.483C115.877 245.089 115.749 244.606 115.749 244.034C115.749 243.542 115.843 243.136 116.033 242.818C116.222 242.5 116.478 242.248 116.8 242.062C117.122 241.877 117.482 241.737 117.879 241.642C118.277 241.547 118.682 241.475 119.095 241.426C119.618 241.366 120.042 241.316 120.368 241.278C120.694 241.237 120.93 241.17 121.078 241.08C121.226 240.989 121.3 240.841 121.3 240.636V240.597C121.3 240.1 121.16 239.716 120.879 239.443C120.603 239.17 120.19 239.034 119.641 239.034C119.069 239.034 118.618 239.161 118.288 239.415C117.963 239.665 117.737 239.943 117.612 240.25L116.016 239.886C116.205 239.356 116.482 238.928 116.845 238.602C117.213 238.273 117.635 238.034 118.112 237.886C118.589 237.735 119.091 237.659 119.618 237.659C119.966 237.659 120.336 237.701 120.726 237.784C121.12 237.864 121.487 238.011 121.828 238.227C122.173 238.443 122.455 238.752 122.675 239.153C122.894 239.551 123.004 240.068 123.004 240.705V246.5H121.345V245.307H121.277C121.167 245.527 121.002 245.742 120.783 245.955C120.563 246.167 120.281 246.343 119.936 246.483C119.591 246.623 119.179 246.693 118.697 246.693ZM119.067 245.33C119.536 245.33 119.938 245.237 120.271 245.051C120.608 244.866 120.864 244.623 121.038 244.324C121.216 244.021 121.305 243.697 121.305 243.352V242.227C121.245 242.288 121.127 242.345 120.953 242.398C120.783 242.447 120.588 242.491 120.368 242.528C120.148 242.562 119.934 242.595 119.726 242.625C119.518 242.652 119.343 242.674 119.203 242.693C118.874 242.735 118.572 242.805 118.3 242.903C118.031 243.002 117.815 243.144 117.652 243.33C117.493 243.511 117.413 243.754 117.413 244.057C117.413 244.477 117.569 244.795 117.879 245.011C118.19 245.223 118.586 245.33 119.067 245.33ZM131.182 241.403V242.875H126.455V241.403H131.182ZM126.932 237.773V246.5H125.267V237.773H126.932ZM132.369 237.773V246.5H130.71V237.773H132.369ZM139.013 234.864H140.751V243.409H140.859L146.78 234.864H148.405V246.5H146.649V237.966H146.541L140.632 246.5H139.013V234.864ZM150.83 246.5V237.773H154.449C155.434 237.773 156.214 237.983 156.79 238.403C157.366 238.82 157.653 239.386 157.653 240.102C157.653 240.614 157.491 241.019 157.165 241.318C156.839 241.617 156.407 241.818 155.869 241.92C156.259 241.966 156.617 242.083 156.943 242.273C157.269 242.458 157.53 242.708 157.727 243.023C157.928 243.337 158.028 243.712 158.028 244.148C158.028 244.61 157.909 245.019 157.67 245.375C157.432 245.727 157.085 246.004 156.631 246.205C156.18 246.402 155.636 246.5 155 246.5H150.83ZM152.426 245.08H155C155.42 245.08 155.75 244.979 155.989 244.778C156.227 244.578 156.347 244.305 156.347 243.96C156.347 243.555 156.227 243.237 155.989 243.006C155.75 242.771 155.42 242.653 155 242.653H152.426V245.08ZM152.426 241.409H154.466C154.784 241.409 155.057 241.364 155.284 241.273C155.515 241.182 155.691 241.053 155.812 240.886C155.938 240.716 156 240.515 156 240.284C156 239.947 155.862 239.684 155.585 239.494C155.309 239.305 154.93 239.21 154.449 239.21H152.426V241.409ZM162.432 246.693C161.879 246.693 161.379 246.591 160.932 246.386C160.485 246.178 160.131 245.877 159.869 245.483C159.612 245.089 159.483 244.606 159.483 244.034C159.483 243.542 159.578 243.136 159.767 242.818C159.956 242.5 160.212 242.248 160.534 242.062C160.856 241.877 161.216 241.737 161.614 241.642C162.011 241.547 162.417 241.475 162.83 241.426C163.352 241.366 163.777 241.316 164.102 241.278C164.428 241.237 164.665 241.17 164.812 241.08C164.96 240.989 165.034 240.841 165.034 240.636V240.597C165.034 240.1 164.894 239.716 164.614 239.443C164.337 239.17 163.924 239.034 163.375 239.034C162.803 239.034 162.352 239.161 162.023 239.415C161.697 239.665 161.472 239.943 161.347 240.25L159.75 239.886C159.939 239.356 160.216 238.928 160.58 238.602C160.947 238.273 161.369 238.034 161.847 237.886C162.324 237.735 162.826 237.659 163.352 237.659C163.701 237.659 164.07 237.701 164.46 237.784C164.854 237.864 165.222 238.011 165.562 238.227C165.907 238.443 166.189 238.752 166.409 239.153C166.629 239.551 166.739 240.068 166.739 240.705V246.5H165.08V245.307H165.011C164.902 245.527 164.737 245.742 164.517 245.955C164.297 246.167 164.015 246.343 163.67 246.483C163.326 246.623 162.913 246.693 162.432 246.693ZM162.801 245.33C163.271 245.33 163.672 245.237 164.006 245.051C164.343 244.866 164.598 244.623 164.773 244.324C164.951 244.021 165.04 243.697 165.04 243.352V242.227C164.979 242.288 164.862 242.345 164.688 242.398C164.517 242.447 164.322 242.491 164.102 242.528C163.883 242.562 163.669 242.595 163.46 242.625C163.252 242.652 163.078 242.674 162.938 242.693C162.608 242.735 162.307 242.805 162.034 242.903C161.765 243.002 161.549 243.144 161.386 243.33C161.227 243.511 161.148 243.754 161.148 244.057C161.148 244.477 161.303 244.795 161.614 245.011C161.924 245.223 162.32 245.33 162.801 245.33ZM174.916 241.403V242.875H170.189V241.403H174.916ZM170.666 237.773V246.5H169.001V237.773H170.666ZM176.104 237.773V246.5H174.445V237.773H176.104ZM182.053 246.676C181.234 246.676 180.52 246.489 179.911 246.114C179.301 245.739 178.827 245.214 178.49 244.54C178.153 243.866 177.984 243.078 177.984 242.176C177.984 241.271 178.153 240.479 178.49 239.801C178.827 239.123 179.301 238.597 179.911 238.222C180.52 237.847 181.234 237.659 182.053 237.659C182.871 237.659 183.585 237.847 184.195 238.222C184.804 238.597 185.278 239.123 185.615 239.801C185.952 240.479 186.121 241.271 186.121 242.176C186.121 243.078 185.952 243.866 185.615 244.54C185.278 245.214 184.804 245.739 184.195 246.114C183.585 246.489 182.871 246.676 182.053 246.676ZM182.058 245.25C182.589 245.25 183.028 245.11 183.376 244.83C183.725 244.549 183.982 244.176 184.149 243.71C184.32 243.244 184.405 242.731 184.405 242.17C184.405 241.614 184.32 241.102 184.149 240.636C183.982 240.167 183.725 239.79 183.376 239.506C183.028 239.222 182.589 239.08 182.058 239.08C181.524 239.08 181.081 239.222 180.729 239.506C180.38 239.79 180.121 240.167 179.95 240.636C179.784 241.102 179.7 241.614 179.7 242.17C179.7 242.731 179.784 243.244 179.95 243.71C180.121 244.176 180.38 244.549 180.729 244.83C181.081 245.11 181.524 245.25 182.058 245.25ZM188.017 246.5V237.773H191.636C192.621 237.773 193.402 237.983 193.977 238.403C194.553 238.82 194.841 239.386 194.841 240.102C194.841 240.614 194.678 241.019 194.352 241.318C194.027 241.617 193.595 241.818 193.057 241.92C193.447 241.966 193.805 242.083 194.131 242.273C194.456 242.458 194.718 242.708 194.915 243.023C195.116 243.337 195.216 243.712 195.216 244.148C195.216 244.61 195.097 245.019 194.858 245.375C194.619 245.727 194.273 246.004 193.818 246.205C193.367 246.402 192.824 246.5 192.188 246.5H188.017ZM189.614 245.08H192.188C192.608 245.08 192.938 244.979 193.176 244.778C193.415 244.578 193.534 244.305 193.534 243.96C193.534 243.555 193.415 243.237 193.176 243.006C192.938 242.771 192.608 242.653 192.188 242.653H189.614V245.08ZM189.614 241.409H191.653C191.972 241.409 192.244 241.364 192.472 241.273C192.703 241.182 192.879 241.053 193 240.886C193.125 240.716 193.188 240.515 193.188 240.284C193.188 239.947 193.049 239.684 192.773 239.494C192.496 239.305 192.117 239.21 191.636 239.21H189.614V241.409Z" fill="#111827"/>
<path d="M308 251L306 249L314 241L306 233L308 231L316 239L324 231L326 233L318 241L326 249L324 251L316 243L308 251Z" fill="#6B7280"/>
<rect x="20.5" y="315.5" width="325" height="55" rx="23.5" fill="white" stroke="#D1D5DB"/>
<path d="M104.375 336.864V348.5H102.625V338.364H97.1477V348.5H95.3977V336.864H104.375ZM110.599 348.676C109.781 348.676 109.067 348.489 108.457 348.114C107.848 347.739 107.374 347.214 107.037 346.54C106.7 345.866 106.531 345.078 106.531 344.176C106.531 343.271 106.7 342.479 107.037 341.801C107.374 341.123 107.848 340.597 108.457 340.222C109.067 339.847 109.781 339.659 110.599 339.659C111.418 339.659 112.132 339.847 112.741 340.222C113.351 340.597 113.825 341.123 114.162 341.801C114.499 342.479 114.668 343.271 114.668 344.176C114.668 345.078 114.499 345.866 114.162 346.54C113.825 347.214 113.351 347.739 112.741 348.114C112.132 348.489 111.418 348.676 110.599 348.676ZM110.605 347.25C111.135 347.25 111.575 347.11 111.923 346.83C112.272 346.549 112.529 346.176 112.696 345.71C112.866 345.244 112.952 344.731 112.952 344.17C112.952 343.614 112.866 343.102 112.696 342.636C112.529 342.167 112.272 341.79 111.923 341.506C111.575 341.222 111.135 341.08 110.605 341.08C110.071 341.08 109.628 341.222 109.276 341.506C108.927 341.79 108.668 342.167 108.497 342.636C108.33 343.102 108.247 343.614 108.247 344.17C108.247 344.731 108.33 345.244 108.497 345.71C108.668 346.176 108.927 346.549 109.276 346.83C109.628 347.11 110.071 347.25 110.605 347.25ZM118.229 346.119L122.075 339.773H123.905V348.5H122.24V342.148L118.411 348.5H116.564V339.773H118.229V346.119ZM129.865 348.676C129.02 348.676 128.293 348.485 127.683 348.102C127.077 347.716 126.611 347.184 126.286 346.506C125.96 345.828 125.797 345.051 125.797 344.176C125.797 343.29 125.964 342.508 126.297 341.83C126.63 341.148 127.1 340.616 127.706 340.233C128.312 339.85 129.026 339.659 129.848 339.659C130.511 339.659 131.102 339.782 131.621 340.028C132.14 340.271 132.558 340.612 132.876 341.051C133.198 341.491 133.39 342.004 133.45 342.591H131.797C131.706 342.182 131.498 341.83 131.172 341.534C130.85 341.239 130.418 341.091 129.876 341.091C129.403 341.091 128.988 341.216 128.632 341.466C128.28 341.712 128.005 342.064 127.808 342.523C127.611 342.977 127.513 343.515 127.513 344.136C127.513 344.773 127.609 345.322 127.803 345.784C127.996 346.246 128.268 346.604 128.621 346.858C128.977 347.112 129.395 347.239 129.876 347.239C130.198 347.239 130.49 347.18 130.751 347.062C131.017 346.941 131.238 346.769 131.416 346.545C131.598 346.322 131.725 346.053 131.797 345.739H133.45C133.39 346.303 133.206 346.807 132.899 347.25C132.592 347.693 132.181 348.042 131.666 348.295C131.155 348.549 130.554 348.676 129.865 348.676ZM135.267 348.5V339.773H136.966V343.432H137.784L140.665 339.773H142.767L139.386 344.017L142.807 348.5H140.699L138.068 345.011H136.966V348.5H135.267ZM145.246 348.608C144.935 348.608 144.668 348.498 144.445 348.278C144.221 348.055 144.109 347.786 144.109 347.472C144.109 347.161 144.221 346.896 144.445 346.676C144.668 346.453 144.935 346.341 145.246 346.341C145.556 346.341 145.823 346.453 146.047 346.676C146.27 346.896 146.382 347.161 146.382 347.472C146.382 347.68 146.329 347.871 146.223 348.045C146.121 348.216 145.984 348.352 145.814 348.455C145.643 348.557 145.454 348.608 145.246 348.608ZM149.777 348.608C149.466 348.608 149.199 348.498 148.976 348.278C148.752 348.055 148.641 347.786 148.641 347.472C148.641 347.161 148.752 346.896 148.976 346.676C149.199 346.453 149.466 346.341 149.777 346.341C150.088 346.341 150.355 346.453 150.578 346.676C150.802 346.896 150.913 347.161 150.913 347.472C150.913 347.68 150.86 347.871 150.754 348.045C150.652 348.216 150.516 348.352 150.345 348.455C150.175 348.557 149.985 348.608 149.777 348.608ZM154.308 348.608C153.998 348.608 153.731 348.498 153.507 348.278C153.284 348.055 153.172 347.786 153.172 347.472C153.172 347.161 153.284 346.896 153.507 346.676C153.731 346.453 153.998 346.341 154.308 346.341C154.619 346.341 154.886 346.453 155.109 346.676C155.333 346.896 155.445 347.161 155.445 347.472C155.445 347.68 155.392 347.871 155.286 348.045C155.183 348.216 155.047 348.352 154.876 348.455C154.706 348.557 154.517 348.608 154.308 348.608Z" fill="#9CA3AF"/>
<path d="M62 343C62 348.523 57.5228 353 52 353C46.4772 353 42 348.523 42 343C42 337.477 46.4772 333 52 333C57.5228 333 62 337.477 62 343ZM45.5 343C45.5 346.59 48.4101 349.5 52 349.5C55.5898 349.5 58.5 346.59 58.5 343C58.5 339.41 55.5898 336.5 52 336.5C48.4101 336.5 45.5 339.41 45.5 343Z" fill="#FFF0EA"/>
<path d="M52 333C53.3132 333 54.6136 333.259 55.8268 333.761C57.0401 334.264 58.1425 335 59.0711 335.929C59.9997 336.858 60.7362 337.96 61.2388 339.173C61.7413 340.386 62 341.687 62 343L58.5 343C58.5 342.146 58.3319 341.301 58.0052 340.513C57.6786 339.724 57.1998 339.007 56.5962 338.404C55.9926 337.8 55.2761 337.321 54.4874 336.995C53.6988 336.668 52.8536 336.5 52 336.5L52 333Z" fill="#6B7280"/>
</svg>
